<svg xmlns="http://www.w3.org/2000/svg" width="109" height="35.34653869716153" viewBox="0 0 109 35.34653869716153" class="editor-view__logo-preview" data-v-8d8ae3dd="" data-v-b9d2a614=""><!----><svg id="name" viewBox="0 0 109.9912109375 35.66796875" width="109" height="35.34653869716153" x="0" y="0" data-v-8d8ae3dd="" style="fill: rgb(255, 255, 255);"><rect x="0" y="0" width="100%" height="100%" fill="none" data-v-8d8ae3dd=""></rect><g data-v-8d8ae3dd=""><path xmlns="http://www.w3.org/2000/svg" d="M59.07 0.99L59.07 0.99Q59.03 1.33 58.78 1.53Q58.53 1.73 58.22 1.73L58.22 1.73Q58.17 1.73 58.06 1.72Q57.95 1.71 57.54 1.71L57.54 1.71Q57.12 1.71 56.46 1.80Q55.79 1.89 55.00 2.17Q54.20 2.45 53.33 2.99Q52.47 3.53 51.64 4.44Q50.81 5.35 50.07 6.68Q49.32 8.02 48.81 9.91L48.81 9.91Q48.54 10.85 48.19 12.61Q47.84 14.38 47.45 16.58Q47.06 18.78 46.66 21.27Q46.27 23.76 45.92 26.17Q45.57 28.57 45.28 30.74Q44.99 32.91 44.83 34.46L44.83 34.46Q44.79 34.75 44.57 34.98Q44.36 35.22 44.05 35.22L44.05 35.22Q43.73 35.22 43.50 35.06Q43.26 34.90 43.17 34.59L43.17 34.59Q42.88 33.51 42.25 31.60Q41.62 29.69 40.80 27.30Q39.98 24.91 39.01 22.21Q38.05 19.52 37.09 16.88Q36.14 14.24 35.25 11.83Q34.37 9.41 33.69 7.57L33.69 7.57Q33.58 8.83 33.34 10.37Q33.11 11.90 32.71 13.67Q32.32 15.43 31.74 17.40Q31.15 19.36 30.34 21.47L30.34 21.47Q29.09 24.71 27.39 27.00Q25.70 29.29 23.83 30.82Q21.97 32.34 20.05 33.23Q18.13 34.12 16.44 34.57Q14.76 35.02 13.41 35.14Q12.06 35.26 11.34 35.26L11.34 35.26Q8.87 35.26 6.79 34.61Q4.72 33.96 3.20 32.76Q1.68 31.56 0.84 29.88Q0 28.21 0 26.19L0 26.19Q0 24.37 0.82 22.79Q1.64 21.20 3.02 20.04Q4.40 18.87 6.19 18.19Q7.97 17.52 9.91 17.52L9.91 17.52Q11.50 17.52 12.77 17.83Q14.04 18.15 15.02 18.63Q15.99 19.11 16.70 19.68Q17.41 20.24 17.87 20.74Q18.33 21.25 18.56 21.61Q18.80 21.97 18.84 22.03L18.84 22.03Q18.93 22.21 18.93 22.44L18.93 22.44Q18.93 22.75 18.70 23.02Q18.46 23.29 18.08 23.29L18.08 23.29Q17.59 23.29 17.34 22.84L17.34 22.84Q17.32 22.78 16.90 22.20Q16.49 21.63 15.62 20.96Q14.76 20.28 13.39 19.73Q12.02 19.18 10.06 19.18L10.06 19.18Q8.47 19.18 6.95 19.72Q5.44 20.26 4.27 21.20Q3.10 22.15 2.39 23.44Q1.68 24.73 1.68 26.23L1.68 26.23Q1.68 27.87 2.45 29.23Q3.21 30.59 4.53 31.56Q5.84 32.52 7.58 33.05Q9.32 33.58 11.30 33.58L11.30 33.58Q12.06 33.58 13.32 33.47Q14.58 33.35 16.14 32.95Q17.70 32.55 19.43 31.73Q21.16 30.91 22.84 29.49Q24.53 28.08 26.07 25.96Q27.60 23.85 28.77 20.84L28.77 20.84Q29.99 17.74 30.67 14.95Q31.36 12.15 31.69 9.91Q32.03 7.66 32.11 6.08Q32.19 4.49 32.19 3.82L32.19 3.82L32.19 3.37Q32.19 3.01 32.42 2.75Q32.66 2.49 33.04 2.49L33.04 2.49Q33.60 2.49 33.83 3.05L33.83 3.05Q33.89 3.21 34.22 4.11Q34.54 5.01 35.07 6.44Q35.60 7.86 36.29 9.73Q36.97 11.59 37.73 13.69Q38.50 15.79 39.31 18.04Q40.12 20.28 40.89 22.46Q41.67 24.64 42.36 26.66Q43.06 28.68 43.62 30.34L43.62 30.34Q43.87 28.55 44.16 26.54Q44.45 24.53 44.78 22.47Q45.10 20.42 45.43 18.44Q45.75 16.46 46.08 14.73Q46.40 13.00 46.67 11.63Q46.94 10.26 47.17 9.43L47.17 9.43Q47.66 7.46 48.58 5.74Q49.50 4.02 50.82 2.74Q52.13 1.46 53.83 0.73Q55.52 0 57.59 0L57.59 0Q58.38 0 58.72 0.18Q59.07 0.36 59.07 0.88L59.07 0.88L59.07 0.99ZM55.73 17.14L55.73 17.14Q55.73 17.99 55.13 18.59Q54.54 19.18 53.68 19.18L53.68 19.18Q52.83 19.18 52.23 18.59Q51.64 17.99 51.64 17.14L51.64 17.14Q51.64 16.71 51.79 16.34Q51.95 15.97 52.23 15.69Q52.51 15.41 52.88 15.25Q53.25 15.09 53.68 15.09L53.68 15.09Q54.11 15.09 54.48 15.25Q54.85 15.41 55.13 15.69Q55.41 15.97 55.57 16.34Q55.73 16.71 55.73 17.14ZM52.09 30.30L52.09 30.30Q52.09 27.07 52.49 23.85L52.49 23.85Q52.54 23.54 52.77 23.30Q53.01 23.07 53.39 23.07L53.39 23.07Q53.73 23.07 53.95 23.33Q54.18 23.58 54.18 23.92L54.18 23.92Q54.18 24.06 54.12 24.73Q54.06 25.40 53.98 26.34Q53.91 27.27 53.85 28.31Q53.79 29.36 53.79 30.23L53.79 30.23Q53.79 31.42 54.03 32.15Q54.27 32.88 54.64 33.29Q55.01 33.69 55.42 33.83Q55.84 33.96 56.22 33.96L56.22 33.96Q56.85 33.96 57.52 33.51Q58.20 33.06 58.90 32.25Q59.61 31.45 60.33 30.31Q61.05 29.18 61.75 27.78L61.75 27.78Q61.86 27.56 62.06 27.44Q62.26 27.31 62.51 27.31L62.51 27.31Q62.87 27.31 63.10 27.58Q63.34 27.85 63.34 28.17L63.34 28.17Q63.34 28.39 63.25 28.55L63.25 28.55Q62.98 29.06 62.58 29.81Q62.17 30.55 61.66 31.33Q61.14 32.12 60.52 32.89Q59.90 33.67 59.21 34.29Q58.51 34.90 57.75 35.29Q56.98 35.67 56.20 35.67L56.20 35.67Q55.19 35.67 54.42 35.24Q53.66 34.81 53.13 34.10Q52.60 33.38 52.35 32.40Q52.09 31.42 52.09 30.30ZM54.47 17.14L54.47 17.14Q54.47 16.82 54.23 16.59Q54.00 16.35 53.68 16.35L53.68 16.35Q53.37 16.35 53.14 16.59Q52.92 16.82 52.92 17.14L52.92 17.14Q52.92 17.45 53.14 17.68Q53.37 17.90 53.68 17.90L53.68 17.90Q54.00 17.90 54.23 17.68Q54.47 17.45 54.47 17.14ZM67.38 32.01L67.38 32.01Q67.76 32.86 68.64 33.37Q69.52 33.87 70.62 33.87L70.62 33.87Q70.95 33.87 71.72 33.77Q72.48 33.67 73.48 33.10Q74.48 32.52 75.60 31.29Q76.73 30.05 77.78 27.81L77.78 27.81Q77.89 27.56 78.10 27.44Q78.30 27.31 78.55 27.31L78.55 27.31Q78.93 27.31 79.16 27.58Q79.40 27.85 79.40 28.17L79.40 28.17Q79.40 28.30 79.31 28.53L79.31 28.53Q78.52 30.17 77.56 31.46Q76.59 32.75 75.47 33.66Q74.35 34.57 73.12 35.05Q71.90 35.53 70.62 35.53L70.62 35.53Q69.61 35.53 68.72 35.22Q67.83 34.90 67.19 34.38Q66.55 33.85 66.18 33.19Q65.81 32.52 65.81 31.83L65.81 31.83Q65.81 31.74 65.83 31.58Q65.86 31.42 65.96 31.23Q66.06 31.04 66.25 30.87Q66.44 30.70 66.78 30.59L66.78 30.59Q67.70 30.32 68.47 29.93Q69.25 29.54 69.81 29.04Q70.37 28.55 70.68 27.95Q71.00 27.36 71.00 26.66L71.00 26.66Q71.00 26.05 70.59 25.67Q70.19 25.29 69.61 25.29L69.61 25.29Q69 25.29 68.42 25.71Q67.83 26.12 67.28 26.81Q66.73 27.49 66.24 28.38Q65.74 29.27 65.33 30.23Q64.91 31.20 64.60 32.15Q64.28 33.11 64.08 33.92L64.08 33.92Q64.01 34.16 63.94 34.46Q63.86 34.75 63.70 35.01Q63.54 35.26 63.32 35.43Q63.09 35.60 62.73 35.60L62.73 35.60Q62.40 35.60 62.08 35.32Q61.77 35.04 61.77 34.37L61.77 34.37Q61.77 34.23 61.78 33.33Q61.79 32.43 61.81 30.98Q61.83 29.54 61.87 27.66Q61.90 25.79 61.92 23.69Q61.95 21.58 61.99 19.36Q62.04 17.14 62.06 15.03Q62.08 12.92 62.12 11.02Q62.15 9.12 62.17 7.65Q62.19 6.18 62.21 5.24Q62.22 4.31 62.22 4.13L62.22 4.13Q62.22 3.77 62.49 3.54Q62.76 3.30 63.07 3.30L63.07 3.30Q63.43 3.30 63.68 3.54Q63.92 3.77 63.92 4.16L63.92 4.16Q63.92 4.20 63.91 5.04Q63.90 5.88 63.88 7.30Q63.86 8.71 63.82 10.60Q63.79 12.49 63.76 14.61Q63.72 16.73 63.69 18.98Q63.65 21.23 63.62 23.36Q63.59 25.49 63.56 27.42Q63.54 29.36 63.52 30.84L63.52 30.84Q63.88 29.69 64.44 28.42Q65.00 27.16 65.77 26.08Q66.53 25.00 67.48 24.30Q68.44 23.61 69.61 23.61L69.61 23.61Q70.26 23.61 70.82 23.84Q71.38 24.08 71.80 24.49Q72.21 24.91 72.45 25.47Q72.68 26.03 72.68 26.68L72.68 26.68Q72.68 27.69 72.23 28.54Q71.79 29.38 71.04 30.04Q70.30 30.70 69.35 31.20Q68.39 31.69 67.38 32.01ZM83.44 32.01L83.44 32.01Q83.82 32.86 84.70 33.37Q85.58 33.87 86.68 33.87L86.68 33.87Q87.01 33.87 87.78 33.77Q88.54 33.67 89.54 33.10Q90.54 32.52 91.66 31.29Q92.79 30.05 93.84 27.81L93.84 27.81Q93.95 27.56 94.16 27.44Q94.36 27.31 94.61 27.31L94.61 27.31Q94.99 27.31 95.22 27.58Q95.46 27.85 95.46 28.17L95.46 28.17Q95.46 28.30 95.37 28.53L95.37 28.53Q94.58 30.17 93.62 31.46Q92.65 32.75 91.53 33.66Q90.41 34.57 89.18 35.05Q87.96 35.53 86.68 35.53L86.68 35.53Q85.67 35.53 84.78 35.22Q83.89 34.90 83.25 34.38Q82.61 33.85 82.24 33.19Q81.87 32.52 81.87 31.83L81.87 31.83Q81.87 31.74 81.89 31.58Q81.92 31.42 82.02 31.23Q82.12 31.04 82.31 30.87Q82.50 30.70 82.84 30.59L82.84 30.59Q83.76 30.32 84.53 29.93Q85.31 29.54 85.87 29.04Q86.43 28.55 86.74 27.95Q87.06 27.36 87.06 26.66L87.06 26.66Q87.06 26.05 86.65 25.67Q86.25 25.29 85.67 25.29L85.67 25.29Q85.06 25.29 84.48 25.71Q83.89 26.12 83.34 26.81Q82.79 27.49 82.30 28.38Q81.80 29.27 81.39 30.23Q80.97 31.20 80.66 32.15Q80.34 33.11 80.14 33.92L80.14 33.92Q80.07 34.16 79.99 34.46Q79.92 34.75 79.76 35.01Q79.60 35.26 79.38 35.43Q79.15 35.60 78.79 35.60L78.79 35.60Q78.46 35.60 78.14 35.32Q77.83 35.04 77.83 34.37L77.83 34.37Q77.83 34.23 77.84 33.33Q77.85 32.43 77.87 30.98Q77.89 29.54 77.93 27.66Q77.96 25.79 77.98 23.69Q78.01 21.58 78.05 19.36Q78.10 17.14 78.12 15.03Q78.14 12.92 78.18 11.02Q78.21 9.12 78.23 7.65Q78.25 6.18 78.27 5.24Q78.28 4.31 78.28 4.13L78.28 4.13Q78.28 3.77 78.55 3.54Q78.82 3.30 79.13 3.30L79.13 3.30Q79.49 3.30 79.74 3.54Q79.98 3.77 79.98 4.16L79.98 4.16Q79.98 4.20 79.97 5.04Q79.96 5.88 79.94 7.30Q79.92 8.71 79.88 10.60Q79.85 12.49 79.81 14.61Q79.78 16.73 79.75 18.98Q79.71 21.23 79.68 23.36Q79.65 25.49 79.62 27.42Q79.60 29.36 79.58 30.84L79.58 30.84Q79.94 29.69 80.50 28.42Q81.06 27.16 81.83 26.08Q82.59 25.00 83.54 24.30Q84.50 23.61 85.67 23.61L85.67 23.61Q86.32 23.61 86.88 23.84Q87.44 24.08 87.86 24.49Q88.27 24.91 88.51 25.47Q88.74 26.03 88.74 26.68L88.74 26.68Q88.74 27.69 88.29 28.54Q87.84 29.38 87.10 30.04Q86.36 30.70 85.41 31.20Q84.45 31.69 83.44 32.01ZM104.20 32.30L104.20 32.30Q103.63 32.30 103.21 32.21L103.21 32.21Q102.87 32.88 102.40 33.46Q101.93 34.03 101.31 34.46Q100.69 34.88 99.93 35.13Q99.17 35.38 98.27 35.38L98.27 35.38Q97.21 35.38 96.33 35.01Q95.46 34.63 94.81 33.97Q94.16 33.31 93.80 32.38Q93.44 31.45 93.44 30.32L93.44 30.32Q93.44 28.88 93.95 27.82Q94.47 26.75 95.14 26.04Q95.82 25.34 96.49 24.99Q97.17 24.64 97.50 24.64L97.50 24.64Q97.88 24.64 98.08 24.84Q98.27 25.04 98.27 25.38L98.27 25.38Q98.27 25.76 98.03 25.95Q97.79 26.14 97.44 26.32L97.44 26.32Q97.08 26.50 96.67 26.83Q96.27 27.16 95.92 27.65Q95.57 28.14 95.35 28.82Q95.12 29.49 95.12 30.32L95.12 30.32Q95.12 31.06 95.35 31.70Q95.57 32.34 96.00 32.80Q96.42 33.26 97.01 33.52Q97.59 33.78 98.31 33.78L98.31 33.78Q99.59 33.78 100.43 33.19Q101.28 32.59 101.73 31.67L101.73 31.67Q100.40 30.97 99.55 29.69Q98.69 28.41 98.69 26.82L98.69 26.82Q98.69 25.54 99.31 24.73Q99.93 23.92 100.94 23.92L100.94 23.92Q101.55 23.92 102.08 24.21Q102.62 24.50 103.04 25.13Q103.46 25.76 103.70 26.75Q103.95 27.74 103.95 29.11L103.95 29.11Q103.95 29.83 103.77 30.61L103.77 30.61Q103.90 30.64 104.04 30.64Q104.17 30.64 104.33 30.64L104.33 30.64Q105.09 30.64 105.70 30.46Q106.31 30.28 106.80 29.92Q107.30 29.56 107.69 29.00Q108.08 28.44 108.44 27.69L108.44 27.69Q108.51 27.56 108.73 27.44Q108.96 27.31 109.18 27.31L109.18 27.31Q109.47 27.31 109.73 27.55Q109.99 27.78 109.99 28.17L109.99 28.17Q109.99 28.35 109.90 28.56Q109.81 28.77 109.72 28.95L109.72 28.95Q109.34 29.63 108.83 30.24Q108.33 30.86 107.64 31.32Q106.96 31.78 106.11 32.05Q105.25 32.32 104.20 32.30ZM100.36 26.64L100.36 26.64Q100.36 27.07 100.47 27.54Q100.58 28.01 100.82 28.47Q101.05 28.93 101.40 29.35Q101.75 29.76 102.22 30.05L102.22 30.05Q102.29 29.58 102.29 29.13L102.29 29.13Q102.29 28.53 102.20 27.90Q102.11 27.27 101.94 26.74Q101.77 26.21 101.52 25.89Q101.28 25.56 100.94 25.56L100.94 25.56Q100.80 25.56 100.58 25.76Q100.36 25.96 100.36 26.64Z"></path></g></svg><!----></svg>